<svg xmlns="http://www.w3.org/2000/svg" fill="none" viewBox="2 2 20 20">
<path fill-rule="evenodd" clip-rule="evenodd" d="M12 22C17.5228 22 22 17.5228 22 12C22 6.47715 17.5228 2 12 2C6.47715 2 2 6.47715 2 12C2 17.5228 6.47715 22 12 22ZM12.7812 13.4435V16.9366V16.937C15.1707 16.5621 16.9988 14.494 16.9988 11.9988C16.9988 9.23805 14.7608 7 12 7C9.23921 7 7.00116 9.23805 7.00116 11.9988C7.00116 14.494 8.82895 16.5621 11.2188 16.937V13.4439H9.9494V11.9988H11.2188V10.8977C11.2188 9.64474 11.965 8.95276 13.1069 8.95276C13.6539 8.95276 14.2259 9.05024 14.2259 9.05024V10.2803H13.5957C12.9748 10.2803 12.7812 10.6656 12.7812 11.0608V11.9985H14.1677L13.946 13.4435H12.7812Z" fill="black"/>
</svg>