<svg xmlns="http://www.w3.org/2000/svg" fill="none" viewBox="2 2 20 20">
<path fill-rule="evenodd" clip-rule="evenodd" d="M12 22C17.5228 22 22 17.5228 22 12C22 6.47715 17.5228 2 12 2C6.47715 2 2 6.47715 2 12C2 17.5228 6.47715 22 12 22ZM16.2638 9.05212C16.3751 9.33825 16.4513 9.66563 16.473 10.1445C16.4948 10.6245 16.5 10.7779 16.5 12C16.5 13.2221 16.4948 13.3755 16.473 13.8555C16.4509 14.3344 16.3751 14.6617 16.2638 14.9479C16.1486 15.2437 15.9949 15.4946 15.7448 15.7448C15.4946 15.9949 15.2437 16.1486 14.9479 16.2638C14.6617 16.3751 14.3344 16.4513 13.8555 16.473C13.3755 16.4948 13.2221 16.5 12 16.5C10.7779 16.5 10.6245 16.4948 10.1445 16.473C9.66563 16.4509 9.33825 16.3751 9.05212 16.2638C8.75625 16.1486 8.50537 15.9949 8.25525 15.7448C8.00513 15.4946 7.85138 15.2437 7.73625 14.9479C7.62488 14.6617 7.54875 14.3344 7.527 13.8555C7.50525 13.3755 7.5 13.2221 7.5 12C7.5 10.7779 7.50525 10.6245 7.527 10.1445C7.54875 9.66563 7.62488 9.33825 7.73625 9.05212C7.85138 8.75625 8.00513 8.50537 8.25525 8.25525C8.50537 8.00513 8.75625 7.85138 9.05212 7.73625C9.33825 7.62488 9.66563 7.54875 10.1445 7.527C10.6245 7.50525 10.7779 7.5 12 7.5C13.2221 7.5 13.3755 7.50525 13.8555 7.527C14.3344 7.54875 14.6617 7.62488 14.9479 7.73625C15.2437 7.85138 15.4946 8.00513 15.7448 8.25525C15.9949 8.50537 16.1486 8.75625 16.2638 9.05212ZM15.5081 14.6539C15.5696 14.4952 15.6431 14.2571 15.663 13.8184C15.6847 13.344 15.6892 13.2015 15.6892 12C15.6892 10.7985 15.6847 10.656 15.663 10.1816C15.6431 9.74288 15.5696 9.50475 15.5081 9.34613C15.4264 9.13613 15.3289 8.98612 15.1714 8.82863C15.0139 8.67112 14.8639 8.57363 14.6539 8.49188C14.4952 8.43038 14.2571 8.35687 13.8184 8.337C13.344 8.31525 13.2015 8.31075 12 8.31075C10.7985 8.31075 10.656 8.31525 10.1816 8.337C9.74288 8.35687 9.50475 8.43038 9.34613 8.49188C9.13613 8.57363 8.98612 8.67112 8.82863 8.82863C8.67112 8.98612 8.57363 9.13613 8.49188 9.34613C8.43038 9.50475 8.35687 9.74288 8.337 10.1816C8.31525 10.656 8.31075 10.7985 8.31075 12C8.31075 13.2015 8.31525 13.344 8.337 13.8184C8.35687 14.2571 8.43038 14.4952 8.49188 14.6539C8.57363 14.8639 8.67112 15.0139 8.82863 15.1714C8.98612 15.3289 9.13613 15.4264 9.34613 15.5081C9.50475 15.5696 9.74288 15.6431 10.1816 15.663C10.656 15.6847 10.7985 15.6892 12 15.6892C13.2015 15.6892 13.344 15.6847 13.8184 15.663C14.2571 15.6431 14.4952 15.5696 14.6539 15.5081C14.8639 15.4264 15.0139 15.3289 15.1714 15.1714C15.3289 15.0139 15.4264 14.8639 15.5081 14.6539ZM9.68925 12C9.68925 10.7239 10.7239 9.68925 12 9.68925C13.2761 9.68925 14.3108 10.7239 14.3108 12C14.3108 13.2761 13.2761 14.3108 12 14.3108C10.7239 14.3108 9.68925 13.2761 9.68925 12ZM10.5 12C10.5 12.8284 11.1716 13.5 12 13.5C12.8284 13.5 13.5 12.8284 13.5 12C13.5 11.1716 12.8284 10.5 12 10.5C11.1716 10.5 10.5 11.1716 10.5 12ZM14.4023 10.1378C14.7004 10.1378 14.9423 9.89587 14.9423 9.59775C14.9423 9.29962 14.7004 9.05775 14.4023 9.05775C14.1041 9.05775 13.8622 9.29962 13.8622 9.59775C13.8622 9.89587 14.1041 10.1378 14.4023 10.1378Z" fill="black"/>
</svg>