<svg xmlns="http://www.w3.org/2000/svg" fill="none" viewBox="2 2 20 20">
<path fill-rule="evenodd" clip-rule="evenodd" d="M12 22C17.5228 22 22 17.5228 22 12C22 6.47715 17.5228 2 12 2C6.47715 2 2 6.47715 2 12C2 17.5228 6.47715 22 12 22ZM7 11.9998C7 9.23829 9.23857 7 12 7C14.7618 7 17 9.23829 17 11.9998C17 14.7613 14.7614 17 12 17C9.23857 17 7 14.7613 7 11.9998ZM13.8643 14.3145C14.0111 14.4049 14.2032 14.3581 14.2929 14.2113V14.211C14.3832 14.0642 14.3364 13.8724 14.1896 13.7824C12.8714 12.977 11.2379 12.7898 9.33321 13.2249C9.16536 13.2631 9.06071 13.4302 9.09893 13.5981C9.13714 13.766 9.30429 13.871 9.47214 13.8327C11.2125 13.4349 12.6904 13.5974 13.8643 14.3145ZM14.3689 12.9784C14.5521 13.0913 14.7921 13.0331 14.905 12.8499V12.8502C15.0179 12.667 14.96 12.427 14.7768 12.3141C13.2332 11.3659 10.9757 11.0987 9.16 11.6498C8.95429 11.7123 8.83786 11.9298 8.9 12.1359C8.9625 12.3416 9.18036 12.4577 9.38643 12.3955C10.9761 11.913 13.025 12.1523 14.3689 12.9784ZM9.14929 10.8537C10.6875 10.3865 13.3464 10.4748 14.9579 11.4319L14.9582 11.4316C15.1796 11.5634 15.4675 11.4902 15.5989 11.268C15.7311 11.0462 15.6582 10.7591 15.4354 10.6273C13.58 9.5258 10.6439 9.42223 8.87786 9.95832C8.63071 10.0337 8.49107 10.2948 8.56607 10.5419C8.64107 10.7891 8.90214 10.9287 9.14929 10.8537Z" fill="black"/>
</svg>