<svg xmlns="http://www.w3.org/2000/svg" fill="none" viewBox="2 2 20 20">
<path fill-rule="evenodd" clip-rule="evenodd" d="M12 22C17.5228 22 22 17.5228 22 12C22 6.47715 17.5228 2 12 2C6.47715 2 2 6.47715 2 12C2 17.5228 6.47715 22 12 22ZM16.3336 9.40183V9.40143L16.334 9.40179C16.3339 9.4018 16.3337 9.40182 16.3336 9.40183ZM16.3336 11.1064V9.40183C16.1224 9.42457 15.6937 9.35774 15.2547 9.13893C15.1872 9.10393 15.1215 9.06572 15.0579 9.02429C14.8725 8.90179 14.7029 8.7575 14.5522 8.59465C14.1754 8.16322 14.0343 7.72536 13.9825 7.41893H13.9847C13.9411 7.16464 13.959 7 13.9618 7H12.2443V13.6414C12.2443 13.7304 12.2443 13.8186 12.2407 13.9057C12.2407 13.9132 12.2402 13.9203 12.2397 13.928C12.2394 13.9313 12.2392 13.9347 12.239 13.9382C12.239 13.9429 12.239 13.9479 12.2379 13.9529V13.9564C12.2011 14.4404 11.9261 14.8743 11.5043 15.1139C11.2875 15.2372 11.0429 15.3014 10.7936 15.3014C9.9936 15.3014 9.34503 14.6489 9.34503 13.8432C9.34503 13.0375 9.9936 12.385 10.7936 12.385C10.945 12.385 11.0957 12.4089 11.2397 12.4557L11.2418 10.7072C10.3579 10.5932 9.46645 10.8539 8.7836 11.4264C8.48752 11.6836 8.23859 11.9904 8.04824 12.3332C7.97574 12.4582 7.70216 12.9607 7.66895 13.7757C7.64788 14.2382 7.78716 14.7175 7.85324 14.9157V14.92C7.89467 15.0368 8.05609 15.4347 8.31931 15.7704C8.53145 16.0397 8.78217 16.2761 9.06324 16.4722V16.4679L9.06753 16.4722C9.89896 17.0372 10.8207 17 10.8207 17C10.8333 16.9995 10.8481 16.999 10.8651 16.9985C11.0645 16.9925 11.5624 16.9774 12.1218 16.7122C12.7954 16.3932 13.1786 15.9179 13.1786 15.9179C13.4233 15.6339 13.6183 15.3104 13.7543 14.9611C13.9097 14.5525 13.9615 14.0625 13.9615 13.8668V10.3436C13.9822 10.3561 14.2597 10.5397 14.2597 10.5397C14.2597 10.5397 14.6597 10.7961 15.2833 10.9629C15.7308 11.0814 16.3336 11.1064 16.3336 11.1064Z" fill="black"/>
</svg>