<svg xmlns="http://www.w3.org/2000/svg" fill="none" viewBox="2 2 20 20">
<path fill-rule="evenodd" clip-rule="evenodd" d="M12 22C17.5228 22 22 17.5228 22 12C22 6.47715 17.5228 2 12 2C6.47715 2 2 6.47715 2 12C2 17.5228 6.47715 22 12 22ZM15.9071 8.70929C16.3371 8.82429 16.6761 9.16287 16.7911 9.59322C17 10.3729 17 12 17 12C17 12 17 13.6268 16.7911 14.4068C16.6761 14.8368 16.3375 15.1757 15.9071 15.2907C15.1275 15.4997 12.0004 15.4997 12.0004 15.4997C12.0004 15.4997 8.87357 15.4997 8.09357 15.2907C7.66357 15.1757 7.32464 14.8372 7.20964 14.4068C7.00071 13.6272 7.00071 12 7.00071 12C7.00071 12 7.00071 10.3732 7.20964 9.59322C7.32464 9.16322 7.66321 8.82429 8.09357 8.70929C8.87321 8.50037 12.0004 8.50037 12.0004 8.50037C12.0004 8.50037 15.1271 8.50037 15.9071 8.70929ZM13.5979 12L11 10.5V13.5L13.5979 12Z" fill="black"/>
</svg>