<svg version="1.1" id="Layer_1" xmlns="http://www.w3.org/2000/svg" xmlns:xlink="http://www.w3.org/1999/xlink" x="0px" y="0px"
	 width="100%" viewBox="0 0 1024 576" enable-background="new 0 0 1024 576" xml:space="preserve">
<path fill="#000000" opacity="1.000000" stroke="none" 
	d="
M527.204956,424.803528 
	C523.911011,418.290070 523.474121,411.760803 523.937988,405.010834 
	C524.282776,399.992981 522.931641,395.104675 522.182312,390.172211 
	C521.777527,387.507385 520.967957,384.722565 522.839966,381.186127 
	C531.219910,392.605286 525.594299,406.777527 531.856323,418.173584 
	C535.414917,414.431396 533.768433,410.299225 533.520508,406.546783 
	C533.094482,400.098022 532.189209,393.675385 531.326416,387.263123 
	C530.857727,383.780121 532.299927,381.906769 535.603760,381.267151 
	C536.399109,381.113220 537.312805,381.326721 538.024902,381.024506 
	C545.052551,378.041962 545.044250,378.021515 547.380371,385.264008 
	C549.940918,393.202332 550.610107,393.661224 559.158203,393.341064 
	C559.324646,393.334839 559.495300,393.351501 559.656860,393.320374 
	C564.124634,392.460724 565.794067,398.189545 571.052734,397.465302 
	C575.350525,396.873413 576.907898,402.309662 578.006470,406.536774 
	C579.464783,412.148438 581.328674,417.662476 583.195923,423.158142 
	C585.519409,429.996674 590.800171,435.063324 595.629028,439.763611 
	C598.887451,442.935394 605.264954,441.100769 610.031006,439.918640 
	C615.005371,438.684875 619.868164,436.719452 624.505554,434.500641 
	C628.074219,432.793121 628.461731,428.648499 629.473755,425.275818 
	C629.956116,423.668121 628.024475,423.262085 626.725342,423.077179 
	C617.098816,421.707306 609.296448,417.002960 602.605408,410.147308 
	C601.830688,409.353516 600.682678,408.685608 599.604187,408.464813 
	C591.597473,406.825500 589.961548,398.903351 585.247925,394.034882 
	C584.951294,393.728516 584.765442,393.006287 584.912109,392.625305 
	C587.469238,385.981110 585.906433,378.334595 590.145264,372.047058 
	C592.191528,369.011780 594.958557,367.101593 598.255310,366.857086 
	C602.355774,366.553009 606.010254,365.199310 609.790894,363.932251 
	C615.016602,362.180939 618.514709,363.457397 621.056946,368.282776 
	C622.643372,371.293884 625.447693,372.695435 628.158997,373.213196 
	C630.843445,373.725800 631.083313,370.125580 632.504211,368.426605 
	C638.460815,361.304230 639.164856,351.886749 643.193848,343.921295 
	C643.993408,342.340424 643.700684,340.673981 643.704590,339.015045 
	C643.707275,337.871368 643.456787,336.202148 644.085327,335.666443 
	C650.094788,330.544525 649.320190,323.153381 650.732544,316.511230 
	C651.226318,314.189056 651.507019,311.157593 654.398682,311.445038 
	C657.636902,311.766937 657.476868,314.838074 657.051880,317.414703 
	C654.135437,335.097229 651.529053,352.824646 648.106079,370.432373 
	C646.438232,379.011627 646.510071,387.637756 652.035156,395.734650 
	C656.932434,402.911530 654.315857,412.108246 646.363586,417.465881 
	C640.966736,421.101837 637.495850,425.259125 637.413452,431.903015 
	C637.401550,432.868988 637.276489,434.163452 636.667786,434.740875 
	C630.892700,440.219513 631.326660,448.440491 627.647583,454.828064 
	C625.523743,458.515381 626.821838,461.846191 629.839050,464.060608 
	C636.066711,468.631348 642.757080,472.283813 650.982117,471.238434 
	C653.878906,470.870239 656.513794,471.925171 659.412231,473.754944 
	C661.377625,469.070557 661.446472,464.498962 661.498596,460.216125 
	C661.592468,452.496674 662.336243,444.759033 659.359985,437.085693 
	C657.209961,431.542358 659.138672,425.164642 661.266968,420.025055 
	C664.666382,411.815613 664.914429,403.213654 666.823303,394.852692 
	C670.363220,379.348633 673.538208,363.788147 678.134399,348.473358 
	C681.672485,336.684265 681.372498,323.805359 680.296814,311.350311 
	C679.925903,307.055695 679.908569,302.739014 679.472168,298.511108 
	C678.033020,284.568420 677.808716,270.436279 672.752869,256.994202 
	C669.225342,247.615158 668.394287,237.626694 668.203064,227.622009 
	C668.178589,226.340927 668.003174,224.721146 667.230469,223.850433 
	C661.463379,217.351898 662.640503,210.210632 664.609741,202.720047 
	C666.862793,194.149857 668.506836,185.421265 670.653259,176.820847 
	C672.301880,170.215240 675.451538,164.191132 678.864136,158.348480 
	C680.651184,155.288910 682.606262,152.427292 681.402283,148.618713 
	C680.842529,146.848083 681.359375,145.167313 682.865784,144.180542 
	C685.286865,142.594604 686.216919,140.133026 687.270203,137.691681 
	C690.978943,129.095551 697.398376,122.238007 702.261597,114.377304 
	C705.908997,108.481796 706.402649,102.300850 704.676331,95.846321 
	C703.561646,91.678627 702.747803,87.186417 700.542542,83.615723 
	C697.736572,79.072334 694.983459,73.809761 688.453430,73.197830 
	C680.927063,72.492531 674.471436,69.558495 668.851318,64.319748 
	C665.765808,61.443661 663.678101,58.292599 662.855347,54.293568 
	C662.378296,51.975227 661.463196,49.865776 660.607910,47.697723 
	C659.146179,43.992802 656.437378,42.523773 652.691528,43.390800 
	C639.967773,46.335918 626.984497,46.438091 614.054993,47.332649 
	C606.463928,47.857853 599.330566,51.514278 591.525269,51.218620 
	C582.570007,50.879398 574.191223,49.081387 566.624329,43.746151 
	C559.888855,38.997124 551.531799,38.990746 543.772583,37.387272 
	C541.193176,36.854218 539.829895,39.073559 539.208862,41.202854 
	C536.291565,51.204403 531.102783,60.302208 528.827637,70.682571 
	C526.859253,79.663132 523.826111,88.695236 520.070007,97.152779 
	C513.853333,111.150543 510.818329,125.834908 508.271759,140.733337 
	C508.215637,141.061737 508.225922,141.408447 508.126007,141.721298 
	C507.152100,144.770126 506.899719,149.503876 502.485474,148.279587 
	C498.604401,147.203186 500.082733,143.163254 501.061066,140.093994 
	C501.596100,138.415512 502.286591,136.694672 501.011353,134.001007 
	C498.890930,141.214722 497.031433,147.706650 495.069977,154.167618 
	C493.052673,160.812561 491.798553,167.879456 484.985779,171.873413 
	C483.968903,172.469543 483.206360,173.935867 482.850037,175.153015 
	C480.156097,184.355759 474.001129,191.889557 470.622375,200.765320 
	C469.427002,203.905487 467.299774,206.501740 464.289429,208.258209 
	C456.774872,212.642792 451.558929,219.799072 444.488770,224.728317 
	C441.486359,226.821579 440.111908,230.215179 438.563171,233.243423 
	C432.677399,244.752029 426.660461,256.238739 421.662231,268.140808 
	C418.108185,276.603973 414.205597,285.423126 417.322449,295.154327 
	C417.562256,295.903015 417.683838,296.802094 416.786407,297.358612 
	C412.165070,293.861115 410.459045,283.728699 412.826752,277.364563 
	C418.385040,262.424591 425.196808,248.068420 432.167969,233.759476 
	C437.888458,222.017624 447.006653,213.470123 457.475739,206.261749 
	C460.998352,203.836258 464.227020,201.570435 465.825897,197.469620 
	C469.498993,188.048492 476.314117,180.048309 478.170990,169.761902 
	C478.605011,167.357422 478.581726,165.259644 476.868805,163.805786 
	C472.358521,159.977676 471.466522,154.477249 469.843811,149.353989 
	C469.059357,146.877304 467.791901,144.817627 466.243927,142.873108 
	C464.044006,140.109589 462.054077,137.303024 461.575409,133.653107 
	C461.275421,131.365509 459.725769,129.656967 458.015350,128.382050 
	C452.938568,124.597847 449.909821,119.244972 446.324005,114.236076 
	C437.157806,101.432045 427.847412,88.717918 418.146576,76.318428 
	C415.401917,72.810272 411.113922,70.509575 407.124359,68.055717 
	C407.697327,74.103996 407.607788,80.289566 415.301514,82.414055 
	C412.548706,85.103622 410.477814,84.648552 408.775574,82.222557 
	C405.432465,77.458069 401.966522,72.747559 399.058472,67.721344 
	C397.126678,64.382401 398.180267,60.624714 400.894226,58.186169 
	C403.803375,55.572224 406.046814,58.645016 408.169617,60.279934 
	C427.134705,74.886169 437.757568,96.335129 452.442688,114.454422 
	C455.580933,118.326569 458.076599,122.717392 462.607605,125.265350 
	C463.317566,125.664597 464.214447,126.204483 464.460175,126.883667 
	C467.129578,134.261703 472.602661,140.131714 475.472504,147.359268 
	C477.183502,151.668335 478.149719,156.309387 482.285156,159.299927 
	C484.498291,158.396896 485.438019,156.337082 485.467682,154.568665 
	C485.618256,145.600555 490.292999,138.468521 494.584991,131.206726 
	C496.858063,127.360794 496.936584,123.397087 496.673706,119.167061 
	C496.106659,110.041946 497.866333,101.729179 504.096039,94.392212 
	C508.517578,89.184784 510.677185,82.447884 512.808472,76.005775 
	C517.807373,60.896301 522.401855,45.652435 527.095581,30.443117 
	C528.109497,27.157734 528.944885,23.809151 529.687195,20.450918 
	C530.166199,18.283623 531.114319,16.445942 533.417847,16.426167 
	C536.266418,16.401714 536.740173,18.926437 536.957458,21.058485 
	C537.324280,24.657656 537.370117,28.289537 537.526306,31.414087 
	C550.617798,32.088135 562.587097,35.217049 573.637512,41.412201 
	C582.856018,46.580299 592.548645,47.187607 602.527710,45.041229 
	C611.503845,43.110573 620.583008,41.976208 629.697571,41.856686 
	C638.018921,41.747566 645.769226,39.381840 653.675781,37.489922 
	C659.782166,36.028740 662.103699,37.049908 664.768982,42.787685 
	C666.029663,45.501701 667.398376,48.237125 668.129333,51.112507 
	C670.547546,60.625366 677.474365,64.719200 686.221436,66.894806 
	C693.762268,68.770401 701.975525,69.800987 705.614807,78.132484 
	C708.211060,84.076103 709.997314,90.364960 711.256104,96.737686 
	C713.047302,105.805710 710.195007,113.724167 704.799622,120.963463 
	C698.438538,129.498550 691.608032,138.055710 687.796509,147.848114 
	C683.194641,159.671082 677.207825,171.124191 675.495239,184.062439 
	C674.386047,192.441849 671.260376,200.462418 669.882019,208.855942 
	C669.322327,212.263901 669.616333,215.137283 672.191162,217.521469 
	C673.806458,219.017181 674.208130,220.896423 674.226501,222.954147 
	C674.346497,236.380630 676.872070,249.276276 681.193298,262.050171 
	C683.380798,268.516541 683.208801,275.806213 683.918823,282.742584 
	C686.048889,303.551117 688.581360,324.401917 685.169556,345.267792 
	C683.996582,352.441620 681.315613,359.368011 679.336670,366.411133 
	C675.739685,379.212585 673.447632,392.288116 671.444946,405.404877 
	C670.504578,411.563690 667.861694,417.184082 666.562439,423.203522 
	C665.470398,428.262726 665.046448,432.972717 667.013550,438.285187 
	C669.501282,445.003784 668.544006,452.479980 667.848267,459.592041 
	C667.366211,464.520844 667.823547,469.581848 665.988770,474.388611 
	C663.539978,480.804138 659.564514,482.340057 653.713440,478.625824 
	C652.036011,477.560974 650.571289,478.023865 648.951782,478.181580 
	C640.097473,479.043823 624.251892,470.064484 620.545898,462.680298 
	C618.702698,459.007751 620.100037,455.967682 621.529236,451.252930 
	C614.514771,453.207245 608.159119,453.049011 601.822510,453.497772 
	C596.803711,453.853180 594.449402,455.203888 593.597534,461.178467 
	C592.274536,470.457123 585.497192,479.202942 573.999146,474.927399 
	C572.096680,474.220001 570.073486,474.095490 568.096252,474.710266 
	C563.549072,476.124084 559.346741,476.248810 555.572571,472.558960 
	C553.946106,470.968903 551.547424,471.208801 549.358826,471.598206 
	C547.228027,471.977356 545.112366,472.524414 542.964966,472.712524 
	C534.489441,473.454895 531.473877,471.398560 527.025452,461.798065 
	C522.199402,465.335114 516.132080,463.765411 510.868958,465.869690 
	C508.777039,466.706085 507.534576,465.198059 506.261719,463.766785 
	C500.292328,457.054382 495.156647,450.035370 491.559570,441.522095 
	C485.148102,426.347778 482.052643,410.626373 480.771790,394.407288 
	C480.400085,389.700653 480.715363,384.992950 485.309998,381.947632 
	C483.299255,377.604065 479.030060,378.260468 476.478851,378.698059 
	C469.340546,379.922546 466.632263,375.608948 463.760529,370.694641 
	C462.542236,368.609863 463.049561,364.287842 458.445343,365.888245 
	C454.203003,367.362823 450.945496,369.719116 451.315887,374.827881 
	C451.905823,382.964294 452.845673,391.068542 454.806824,398.997467 
	C457.003784,407.879852 457.769623,417.004913 459.567749,425.930084 
	C460.929077,432.687531 460.408051,440.803894 467.942780,444.698334 
	C473.042145,447.333984 478.224976,450.252319 484.322540,450.009552 
	C488.080200,449.859955 490.903076,452.132416 493.997253,453.679260 
	C495.275299,454.318176 495.968109,455.529358 495.794739,456.982758 
	C495.595764,458.651031 494.476196,459.700470 492.901550,460.041046 
	C490.624268,460.533661 488.155121,461.251801 485.996460,460.281067 
	C476.387787,455.960205 465.582367,453.894501 457.997772,445.689667 
	C456.980591,444.589325 455.741333,443.622864 454.986328,442.365417 
	C452.974884,439.015442 450.613098,437.504822 446.797455,439.734863 
	C443.117065,441.885864 439.781281,437.975433 436.231812,438.845795 
	C431.365936,440.038940 430.401581,435.762268 427.704590,433.607361 
	C421.464935,428.621918 420.309418,423.085632 423.547882,416.032257 
	C424.747162,413.420288 426.421387,412.863495 428.697968,413.868317 
	C430.898926,414.839783 431.970947,416.518158 430.954132,419.131592 
	C428.942902,424.300873 433.237946,430.097443 438.455444,432.024170 
	C443.948730,434.052734 448.316620,432.028778 453.199493,430.548767 
	C452.475800,419.961426 450.589447,409.543732 448.386353,399.145355 
	C446.770844,391.520416 445.683777,383.777740 444.533600,376.061829 
	C443.591003,369.738647 445.783844,365.574615 451.903473,362.379730 
	C454.702087,360.918671 455.439819,359.352509 455.059265,356.091675 
	C454.407227,350.504456 454.064911,344.832092 453.612579,339.221252 
	C452.817780,329.362488 451.318268,319.524811 449.106934,309.822723 
	C447.916840,304.601074 444.097778,303.982635 439.855621,303.309784 
	C435.693268,302.649536 433.164154,304.543976 431.342468,307.902679 
	C430.552185,309.359772 429.590698,310.846832 429.296448,312.429871 
	C427.598053,321.567535 426.064301,330.735992 424.519623,339.901550 
	C424.415039,340.522095 424.475494,341.334503 424.799744,341.838562 
	C429.442383,349.055664 426.559204,356.247894 423.934143,362.905396 
	C421.851257,368.187744 416.869568,371.388428 410.888153,371.474731 
	C407.967773,371.516907 406.691833,372.344543 406.068787,375.128998 
	C404.985901,379.968719 402.905762,384.521179 403.072357,389.712708 
	C403.216919,394.217834 398.493866,394.554565 395.757751,396.243164 
	C393.259338,397.785095 391.055298,395.690094 389.639038,393.414612 
	C387.071320,389.289001 383.056854,386.446320 381.691711,381.080475 
	C380.226532,375.321472 380.523041,369.879517 381.210388,364.345001 
	C381.636078,360.917267 382.909607,357.554260 382.942474,354.047485 
	C383.045563,343.051605 391.280487,336.412292 396.838654,327.807648 
	C393.993286,327.782410 392.599609,326.339233 392.593842,323.576538 
	C392.559479,307.125153 386.229889,291.778839 384.104858,275.743500 
	C381.865234,258.843750 374.927216,243.518799 369.747803,227.620270 
	C366.494934,217.635361 359.500793,209.417923 354.202118,200.402893 
	C350.247986,193.675400 346.129364,186.942444 341.239807,180.894455 
	C335.940430,174.339554 329.099609,169.012558 323.941742,162.365753 
	C316.019287,152.156296 307.206177,142.659531 299.954163,131.904221 
	C294.872253,124.367325 290.216675,116.376045 282.582031,110.923462 
	C280.039307,109.107475 278.657288,106.316536 277.164734,103.834465 
	C271.007416,93.595009 261.750336,86.053078 254.370804,76.894875 
	C245.945526,66.438889 237.246780,56.202621 228.867950,45.710297 
	C226.559143,42.819126 224.967911,39.354931 223.059753,36.174213 
	C224.980240,34.785744 225.698486,36.086651 226.403946,36.824841 
	C238.016937,48.976460 249.273270,61.426048 259.287537,74.971352 
	C263.730011,80.980247 270.216125,85.132805 274.484924,91.424103 
	C285.313965,107.383888 299.181335,120.926399 310.231201,136.832809 
	C317.920319,147.901367 326.441559,158.763474 336.372498,168.136414 
	C354.975403,185.694107 366.736542,207.825668 377.888123,230.255310 
	C381.923370,238.371536 382.645447,247.916199 386.321045,256.333527 
	C391.610809,268.447266 390.185333,281.901794 394.112732,294.290894 
	C396.554932,301.995026 399.696411,309.551575 399.300568,319.186218 
	C403.773651,315.594391 407.477905,312.938385 412.076782,315.303497 
	C418.185944,305.421173 418.213226,305.405914 423.273499,309.189117 
	C424.720123,307.226715 426.486237,305.419342 427.558411,303.266357 
	C430.790649,296.775879 436.369965,296.643585 442.370483,297.353424 
	C442.533112,297.372650 442.687653,297.468567 442.849823,297.481873 
	C445.518768,297.700958 448.467438,295.349426 450.836639,298.158173 
	C453.504364,301.320892 454.455597,305.268921 455.224579,309.186768 
	C457.223267,319.369873 464.795044,324.518005 475.058746,322.499695 
	C482.080139,321.118988 486.380737,323.669708 488.065857,330.717621 
	C488.871338,334.086517 489.219696,337.640808 489.220398,341.111237 
	C489.222229,350.265564 492.093018,358.876221 494.643250,367.407990 
	C495.790924,371.247589 501.509491,371.635986 505.013947,371.082947 
	C509.401978,370.390411 512.419861,372.029388 515.689087,373.943726 
	C517.607544,375.067108 518.583191,376.828674 517.801514,379.020386 
	C516.940369,381.434967 514.074402,382.012756 512.856812,380.964081 
	C507.962280,376.748352 501.815521,379.741638 496.431030,377.412262 
	C491.045929,375.082642 487.580383,372.041992 486.861908,366.524017 
	C485.727295,357.810120 483.393250,349.249512 483.539642,340.355927 
	C483.577301,338.067200 483.057587,335.698700 482.401489,333.483093 
	C480.782898,328.017151 478.569641,326.571777 473.281799,328.444122 
	C468.728577,330.056366 464.911469,328.629913 461.109833,326.776825 
	C459.754578,328.594177 460.839935,329.913757 461.262939,331.282806 
	C461.761353,332.895844 462.573364,334.999115 461.513489,336.113007 
	C456.386902,341.500946 461.085052,347.272247 460.647827,352.806732 
	C460.472168,355.030548 461.314362,357.552734 464.742737,358.000153 
	C466.771942,358.264954 467.528107,360.633240 468.042236,362.638550 
	C470.313995,371.499390 471.423309,374.347137 483.325653,371.545410 
	C485.957886,370.925781 487.486420,371.446808 488.473755,373.881470 
	C490.005096,377.657623 492.841583,380.074097 496.541962,381.610992 
	C497.291626,381.922363 498.063477,382.349701 498.620270,382.922668 
	C500.004303,384.346802 501.732056,385.882080 500.394043,388.088654 
	C499.099731,390.223206 496.929657,389.775818 494.998566,389.096375 
	C489.024414,386.994476 487.050140,388.437134 487.205811,394.957611 
	C487.433685,404.501526 489.899048,413.646057 491.877045,422.913635 
	C493.424652,430.164734 496.309174,436.752472 499.157623,443.480530 
	C501.669922,449.414642 506.306946,453.599487 510.671692,457.684784 
	C514.970886,461.708679 527.574341,456.505951 528.268982,450.371704 
	C529.211304,442.049774 530.065979,433.484863 527.204956,424.803528 
M538.401001,435.256592 
	C538.932495,442.444458 538.195557,449.476044 536.285706,456.449585 
	C533.952148,464.970032 535.622498,467.118774 544.563232,466.633453 
	C550.686035,466.301086 556.813721,464.721527 562.196350,469.280853 
	C562.772034,469.768555 564.180847,469.589569 565.083923,469.320129 
	C569.362793,468.043579 573.619873,468.129578 577.899170,469.208618 
	C579.817444,469.692322 581.461609,469.256409 583.034302,468.037628 
	C587.496948,464.579071 589.607971,454.692108 586.071655,450.360168 
	C583.071289,446.684692 582.733887,443.745453 586.579651,440.226624 
	C577.191528,431.042175 574.057922,419.085785 570.586975,407.274658 
	C570.323303,406.377411 569.658997,404.960724 569.066040,404.899597 
	C564.847107,404.464447 561.191284,401.061981 557.363647,401.259521 
	C548.911316,401.695740 543.387634,398.623688 540.277466,389.538361 
	C539.819519,391.857361 539.270386,392.907654 539.497009,393.749054 
	C543.179321,407.422119 538.648621,420.850830 538.401001,435.256592 
M639.849915,394.757355 
	C639.541687,394.365509 639.227356,393.978241 638.926208,393.581055 
	C636.388550,390.234344 634.446411,386.010284 628.770142,388.669464 
	C627.125000,389.440155 624.424194,387.971893 624.772827,386.065277 
	C625.782104,380.545746 621.822083,378.420044 618.904053,375.140442 
	C616.052368,371.935303 613.510803,368.752197 608.998962,370.728119 
	C605.252075,372.369080 600.911987,371.184784 597.542419,373.490082 
	C594.379150,375.654327 591.433228,389.163971 593.035034,392.689880 
	C595.808044,398.793854 616.175354,414.222290 622.885620,415.923462 
	C629.667542,417.642731 635.513855,414.371460 641.697998,413.071442 
	C643.684875,412.653778 644.564453,410.135101 644.118225,407.665497 
	C643.346191,403.392242 642.248047,399.242798 639.849915,394.757355 
M419.416168,357.752014 
	C422.409149,346.323059 417.657471,336.194397 414.774353,324.960815 
	C411.466766,327.313324 408.564850,328.043762 405.897644,329.272888 
	C398.196991,332.821625 393.181580,339.520020 390.802979,346.959564 
	C388.626648,353.766541 387.260254,361.170959 386.645996,368.429718 
	C385.990570,376.174622 387.620148,383.478333 394.897156,388.836670 
	C397.655212,381.450989 400.212769,374.499908 402.859497,367.582916 
	C403.570740,365.724030 404.393372,363.754669 407.034546,364.168671 
	C414.083435,365.273560 415.687012,364.520172 419.416168,357.752014 
M505.685394,120.267426 
	C509.191650,113.676125 510.941589,106.467453 513.647034,99.523468 
	C508.311523,99.630524 507.423309,103.161049 507.513885,106.689148 
	C507.631348,111.264153 506.172699,115.473564 505.685394,120.267426 
M638.751038,373.727417 
	C638.529907,377.144226 635.024963,381.154938 640.628601,383.978577 
	C640.628601,379.542419 640.628601,375.570923 640.628601,371.599426 
	C640.356750,371.564026 640.084900,371.528656 639.813049,371.493256 
	C639.531433,372.029572 639.249817,372.565887 638.751038,373.727417 
M528.453186,51.633965 
	C530.054810,48.120804 531.083984,44.486912 530.920105,39.366009 
	C528.876038,45.216698 527.224365,49.944183 525.572693,54.671665 
	C525.833679,54.796379 526.094666,54.921089 526.355591,55.045799 
	C526.947998,54.111530 527.540344,53.177261 528.453186,51.633965 
z"/>
</svg>